  0
SECTION
  2
HEADER
  9
$ACADVER
  1
AC1018
  9
$ACADMAINTVER
 70
     0
  9
$DWGCODEPAGE
  3
ANSI_1252
  9
$EXTMIN
 10
612788.813881175
 20
6650925.42787719
 30
0.0
  9
$EXTMAX
 10
613290.190372342
 20
6651551.94076141
 30
0.0
  9
$LIMMIN
 10
0.0
 20
0.0
  9
$LIMMAX
 10
12.0
 20
9.0
  9
$ORTHOMODE
 70
     0
  9
$REGENMODE
 70
     1
  9
$FILLMODE
 70
     1
  9
$QTEXTMODE
 70
     0
  9
$MIRRTEXT
 70
     1
  9
$LTSCALE
 40
1.0
  9
$ATTMODE
 70
     1
  9
$TEXTSIZE
 40
0.2
  9
$TRACEWID
 40
0.05
  9
$TEXTSTYLE
  7
Standard
  9
$CLAYER
  8
0
  9
$CELTYPE
  6
ByLayer
  9
$CECOLOR
 62
   256
  9
$CELTSCALE
 40
1.0
  9
$DISPSILH
 70
     0
  9
$LUNITS
 70
     2
  9
$LUPREC
 70
     4
  9
$SKETCHINC
 40
0.1
  9
$FILLETRAD
 40
0.5
  9
$AUNITS
 70
     0
  9
$AUPREC
 70
     0
  9
$MENU
  1
.
  9
$ELEVATION
 40
0.0
  9
$PELEVATION
 40
0.0
  9
$THICKNESS
 40
0.0
  9
$LIMCHECK
 70
     0
  9
$CHAMFERA
 40
0.5
  9
$CHAMFERB
 40
0.5
  9
$CHAMFERC
 40
1.0
  9
$CHAMFERD
 40
0.0
  9
$SKPOLY
 70
     0
  9
$ANGBASE
 50
0.0
  9
$ANGDIR
 70
     0
  9
$PDMODE
 70
     0
  9
$PDSIZE
 40
0.0
  9
$PLINEWID
 40
0.0
  9
$SPLFRAME
 70
     0
  9
$SPLINETYPE
 70
     6
  9
$SPLINESEGS
 70
     8
  9
$HANDSEED
  5
00020131
  9
$SURFTAB1
 70
     6
  9
$SURFTAB2
 70
     6
  9
$SURFTYPE
 70
     6
  9
$SURFU
 70
     6
  9
$SURFV
 70
     6
  9
$UCSBASE
  2

  9
$UCSNAME
  2

  9
$UCSORG
 10
0.0
 20
0.0
 30
0.0
  9
$UCSXDIR
 10
1.0
 20
0.0
 30
0.0
  9
$UCSYDIR
 10
0.0
 20
1.0
 30
0.0
  9
$UCSORTHOREF
  2

  9
$UCSORTHOVIEW
 70
     0
  9
$UCSORGTOP
 10
0.0
 20
0.0
 30
0.0
  9
$UCSORGBOTTOM
 10
0.0
 20
0.0
 30
0.0
  9
$UCSORGLEFT
 10
0.0
 20
0.0
 30
0.0
  9
$UCSORGRIGHT
 10
0.0
 20
0.0
 30
0.0
  9
$UCSORGFRONT
 10
0.0
 20
0.0
 30
0.0
  9
$UCSORGBACK
 10
0.0
 20
0.0
 30
0.0
  9
$PUCSBASE
  2

  9
$PUCSNAME
  2

  9
$PUCSORG
 10
0.0
 20
0.0
 30
0.0
  9
$PUCSXDIR
 10
1.0
 20
0.0
 30
0.0
  9
$PUCSYDIR
 10
0.0
 20
1.0
 30
0.0
  9
$PUCSORTHOREF
  2

  9
$PUCSORTHOVIEW
 70
     0
  9
$PUCSORGTOP
 10
0.0
 20
0.0
 30
0.0
  9
$PUCSORGBOTTOM
 10
0.0
 20
0.0
 30
0.0
  9
$PUCSORGLEFT
 10
0.0
 20
0.0
 30
0.0
  9
$PUCSORGRIGHT
 10
0.0
 20
0.0
 30
0.0
  9
$PUCSORGFRONT
 10
0.0
 20
0.0
 30
0.0
  9
$PUCSORGBACK
 10
0.0
 20
0.0
 30
0.0
  9
$WORLDVIEW
 70
     1
  9
$SHADEDGE
 70
     3
  9
$SHADEDIF
 70
    70
  9
$TILEMODE
 70
     1
  9
$MAXACTVP
 70
    64
  9
$PINSBASE
 10
0.0
 20
0.0
 30
0.0
  9
$PLIMCHECK
 70
     0
  9
$PEXTMIN
 10
1.000000000000000E+20
 20
1.000000000000000E+20
 30
1.000000000000000E+20
  9
$PEXTMAX
 10
-1.000000000000000E+20
 20
-1.000000000000000E+20
 30
-1.000000000000000E+20
  9
$PLIMMIN
 10
0.0
 20
0.0
  9
$PLIMMAX
 10
12.0
 20
9.0
  9
$UNITMODE
 70
     0
  9
$VISRETAIN
 70
     1
  9
$PLINEGEN
 70
     0
  9
$PSLTSCALE
 70
     1
  9
$TREEDEPTH
 70
  3020
  9
$CMLSTYLE
  2
Standard
  9
$CMLJUST
 70
     0
  9
$CMLSCALE
 40
1.0
  9
$PROXYGRAPHICS
 70
     1
  9
$MEASUREMENT
 70
     0
  9
$CELWEIGHT
370
    -1
  9
$ENDCAPS
280
     0
  9
$JOINSTYLE
280
     0
  9
$LWDISPLAY
290
     0
  9
$INSUNITS
 70
     1
  9
$HYPERLINKBASE
  1

  9
$STYLESHEET
  1

  9
$XEDIT
290
     1
  9
$CEPSNTYPE
380
     0
  9
$PSTYLEMODE
290
     1
  9
$EXTNAMES
290
     1
  9
$PSVPSCALE
 40
0.0
  9
$OLESTARTUP
290
     0
  9
$SORTENTS
280
   127
  9
$INDEXCTL
280
     0
  9
$HIDETEXT
280
     1
  9
$XCLIPFRAME
290
     0
  9
$HALOGAP
280
     0
  9
$OBSCOLOR
 70
   257
  9
$OBSLTYPE
280
     0
  9
$INTERSECTIONDISPLAY
280
     0
  9
$INTERSECTIONCOLOR
 70
   257
  9
$DIMASSOC
280
     2
  9
$PROJECTNAME
  1

  0
ENDSEC
  0
SECTION
  2
CLASSES
  0
CLASS
  1
ACDBDICTIONARYWDFLT
  2
AcDbDictionaryWithDefault
  3
ObjectDBX Classes
 90
        0
 91
        4
280
     0
281
     0
  0
ENDSEC
  0
SECTION
  2
TABLES
  0
TABLE
  2
VPORT
  5
8
330
0
100
AcDbSymbolTable
 70
     1
  0
VPORT
  5
29
330
8
100
AcDbSymbolTableRecord
100
AcDbViewportTableRecord
  2
*Active
 70
     0
 10
0.0
 20
0.0
 11
1.0
 21
1.0
 12
80.25
 22
106.4409457059851
 13
0.0
 23
0.0
 14
0.5
 24
0.5
 15
0.5
 25
0.5
 16
0.0
 26
0.0
 36
1.0
 17
0.0
 27
0.0
 37
0.0
 40
113.3818914119703
 41
0.8863849310366128
 42
50.0
 43
0.0
 44
0.0
 50
0.0
 51
0.0
 71
     0
 72
  1000
 73
     1
 74
     3
 75
     0
 76
     0
 77
     0
 78
     0
281
     0
 65
     1
110
0.0
120
0.0
130
0.0
111
1.0
121
0.0
131
0.0
112
0.0
122
1.0
132
0.0
 79
     0
146
0.0
  0
ENDTAB
  0
TABLE
  2
LTYPE
  5
5
330
0
100
AcDbSymbolTable
 70
     1
  0
LTYPE
  5
14
330
5
100
AcDbSymbolTableRecord
100
AcDbLinetypeTableRecord
  2
ByBlock
 70
     0
  3

 72
    65
 73
     0
 40
0.0
  0
LTYPE
  5
15
330
5
100
AcDbSymbolTableRecord
100
AcDbLinetypeTableRecord
  2
ByLayer
 70
     0
  3

 72
    65
 73
     0
 40
0.0
  0
LTYPE
  5
16
330
5
100
AcDbSymbolTableRecord
100
AcDbLinetypeTableRecord
  2
Continuous
 70
     0
  3
Solid line
 72
    65
 73
     0
 40
0.0
  0
ENDTAB
  0
TABLE
  2
LAYER
  5
2
330
0
100
AcDbSymbolTable
 70
     1
  0
LAYER
  5
10
330
2
100
AcDbSymbolTableRecord
100
AcDbLayerTableRecord
  2
0
 70
     0
 62
     7
  6
Continuous
370
    -3
390
F
  0
ENDTAB
  0
TABLE
  2
STYLE
  5
3
330
0
100
AcDbSymbolTable
 70
     1
  0
STYLE
  5
11
330
3
100
AcDbSymbolTableRecord
100
AcDbTextStyleTableRecord
  2
Standard
 70
     0
 40
0.0
 41
1.0
 50
0.0
 71
     0
 42
0.2
  3
txt
  4

  0
ENDTAB
  0
TABLE
  2
VIEW
  5
6
330
0
100
AcDbSymbolTable
 70
     0
  0
ENDTAB
  0
TABLE
  2
UCS
  5
7
330
0
100
AcDbSymbolTable
 70
     0
  0
ENDTAB
  0
TABLE
  2
APPID
  5
9
330
0
100
AcDbSymbolTable
 70
     1
  0
APPID
  5
12
330
9
100
AcDbSymbolTableRecord
100
AcDbRegAppTableRecord
  2
ACAD
 70
     0
  0
ENDTAB
  0
TABLE
  2
DIMSTYLE
  5
A
330
0
100
AcDbSymbolTable
 70
     1
100
AcDbDimStyleTable
  0
DIMSTYLE
105
27
330
A
100
AcDbSymbolTableRecord
100
AcDbDimStyleTableRecord
  2
Standard
 70
     0
340
11
  0
ENDTAB
  0
TABLE
  2
BLOCK_RECORD
  5
1
330
0
100
AcDbSymbolTable
 70
     1
  0
BLOCK_RECORD
  5
1F
330
1
100
AcDbSymbolTableRecord
100
AcDbBlockTableRecord
  2
*Model_Space
340
22
  0
BLOCK_RECORD
  5
1B
330
1
100
AcDbSymbolTableRecord
100
AcDbBlockTableRecord
  2
*Paper_Space
340
1E
  0
ENDTAB
  0
ENDSEC
  0
SECTION
  2
BLOCKS
  0
BLOCK
  5
20
330
1F
100
AcDbEntity
  8
0
100
AcDbBlockBegin
  2
*Model_Space
 70
     0
 10
0.0
 20
0.0
 30
0.0
  3
*Model_Space
  1

  0
ENDBLK
  5
21
330
1F
100
AcDbEntity
  8
0
100
AcDbBlockEnd
  0
BLOCK
  5
1C
330
1B
100
AcDbEntity
 67
     1
  8
0
100
AcDbBlockBegin
  2
*Paper_Space
 70
     0
 10
0.0
 20
0.0
 30
0.0
  3
*Paper_Space
  1

  0
ENDBLK
  5
1D
330
1B
100
AcDbEntity
 67
     1
  8
0
100
AcDbBlockEnd
  0
ENDSEC
  0
SECTION
  2
ENTITIES
  0
POINT
  5
20000
100
AcDbEntity
  8
0
100
AcDbPoint
 10
612794.578201117
 20
6651323.53823389
  0
POINT
  5
20001
100
AcDbEntity
  8
0
100
AcDbPoint
 10
612792.474085236
 20
6651309.14801608
  0
POINT
  5
20002
100
AcDbEntity
  8
0
100
AcDbPoint
 10
612798.951092299
 20
6651353.51731743
  0
POINT
  5
20003
100
AcDbEntity
  8
0
100
AcDbPoint
 10
612802.607135655
 20
6651364.15307993
  0
POINT
  5
20004
100
AcDbEntity
  8
0
100
AcDbPoint
 10
612806.263179011
 20
6651367.14438813
  0
POINT
  5
20005
100
AcDbEntity
  8
0
100
AcDbPoint
 10
612812.910530568
 20
6651370.80043148
  0
POINT
  5
20006
100
AcDbEntity
  8
0
100
AcDbPoint
 10
612818.893146969
 20
6651371.46516664
  0
POINT
  5
20007
100
AcDbEntity
  8
0
100
AcDbPoint
 10
612826.53760126
 20
6651370.13569633
  0
POINT
  5
20008
100
AcDbEntity
  8
0
100
AcDbPoint
 10
612832.852585238
 20
6651366.47965297
  0
POINT
  5
20009
100
AcDbEntity
  8
0
100
AcDbPoint
 10
612836.840996172
 20
6651365.81491782
  0
POINT
  5
2000A
100
AcDbEntity
  8
0
100
AcDbPoint
 10
612841.161774684
 20
6651365.81491782
  0
POINT
  5
2000B
100
AcDbEntity
  8
0
100
AcDbPoint
 10
612845.814920774
 20
6651368.80622602
  0
POINT
  5
2000C
100
AcDbEntity
  8
0
100
AcDbPoint
 10
612889.687441048
 20
6651401.37824865
  0
POINT
  5
2000D
100
AcDbEntity
  8
0
100
AcDbPoint
 10
612894.340587138
 20
6651401.71061622
  0
POINT
  5
2000E
100
AcDbEntity
  8
0
100
AcDbPoint
 10
612900.987938695
 20
6651408.69033536
  0
POINT
  5
2000F
100
AcDbEntity
  8
0
100
AcDbPoint
 10
612926.580242188
 20
6651408.69033536
  0
POINT
  5
20010
100
AcDbEntity
  8
0
100
AcDbPoint
 10
612937.216004679
 20
6651421.32030331
  0
POINT
  5
20011
100
AcDbEntity
  8
0
100
AcDbPoint
 10
612941.869150769
 20
6651420.65556816
  0
POINT
  5
20012
100
AcDbEntity
  8
0
100
AcDbPoint
 10
612945.857561703
 20
6651413.67584902
  0
POINT
  5
20013
100
AcDbEntity
  8
0
100
AcDbPoint
 10
612949.513605059
 20
6651407.02849747
  0
POINT
  5
20014
100
AcDbEntity
  8
0
100
AcDbPoint
 10
612968.458556996
 20
6651405.36665958
  0
POINT
  5
20015
100
AcDbEntity
  8
0
100
AcDbPoint
 10
612979.759054642
 20
6651411.68164356
  0
POINT
  5
20016
100
AcDbEntity
  8
0
100
AcDbPoint
 10
612987.071141355
 20
6651412.01401114
  0
POINT
  5
20017
100
AcDbEntity
  8
0
100
AcDbPoint
 10
613002.360049935
 20
6651424.31161152
  0
POINT
  5
20018
100
AcDbEntity
  8
0
100
AcDbPoint
 10
613011.333974537
 20
6651422.31740605
  0
POINT
  5
20019
100
AcDbEntity
  8
0
100
AcDbPoint
 10
613022.302104606
 20
6651416.66715723
  0
POINT
  5
2001A
100
AcDbEntity
  8
0
100
AcDbPoint
 10
613029.614191318
 20
6651417.99662753
  0
POINT
  5
2001B
100
AcDbEntity
  8
0
100
AcDbPoint
 10
613032.937867096
 20
6651425.30871425
  0
POINT
  5
2001C
100
AcDbEntity
  8
0
100
AcDbPoint
 10
613045.900202632
 20
6651429.29712519
  0
POINT
  5
2001D
100
AcDbEntity
  8
0
100
AcDbPoint
 10
613059.194905746
 20
6651436.94157947
  0
POINT
  5
2001E
100
AcDbEntity
  8
0
100
AcDbPoint
 10
613071.160138548
 20
6651442.5918283
  0
POINT
  5
2001F
100
AcDbEntity
  8
0
100
AcDbPoint
 10
613084.787209239
 20
6651445.5831365
  0
POINT
  5
20020
100
AcDbEntity
  8
0
100
AcDbPoint
 10
613091.766928374
 20
6651450.56865016
  0
POINT
  5
20021
100
AcDbEntity
  8
0
100
AcDbPoint
 10
613094.758236574
 20
6651471.50780757
  0
POINT
  5
20022
100
AcDbEntity
  8
0
100
AcDbPoint
 10
613101.737955709
 20
6651490.45275951
  0
POINT
  5
20023
100
AcDbEntity
  8
0
100
AcDbPoint
 10
613108.052939688
 20
6651499.75905169
  0
POINT
  5
20024
100
AcDbEntity
  8
0
100
AcDbPoint
 10
613124.338951002
 20
6651517.37453331
  0
POINT
  5
20025
100
AcDbEntity
  8
0
100
AcDbPoint
 10
613138.630756849
 20
6651523.68951729
  0
POINT
  5
20026
100
AcDbEntity
  8
0
100
AcDbPoint
 10
613139.96022716
 20
6651530.33686884
  0
POINT
  5
20027
100
AcDbEntity
  8
0
100
AcDbPoint
 10
613160.234649408
 20
6651551.94076141
  0
POINT
  5
20028
100
AcDbEntity
  8
0
100
AcDbPoint
 10
613165.552530654
 20
6651548.28471805
  0
POINT
  5
20029
100
AcDbEntity
  8
0
100
AcDbPoint
 10
613169.540941588
 20
6651548.61708562
  0
POINT
  5
2002A
100
AcDbEntity
  8
0
100
AcDbPoint
 10
613173.196984944
 20
6651539.64316103
  0
POINT
  5
2002B
100
AcDbEntity
  8
0
100
AcDbPoint
 10
613184.829850168
 20
6651538.97842587
  0
POINT
  5
2002C
100
AcDbEntity
  8
0
100
AcDbPoint
 10
613188.485893524
 20
6651531.001604
  0
POINT
  5
2002D
100
AcDbEntity
  8
0
100
AcDbPoint
 10
613202.445331794
 20
6651519.70110636
  0
POINT
  5
2002E
100
AcDbEntity
  8
0
100
AcDbPoint
 10
613222.055018886
 20
6651506.40640324
  0
POINT
  5
2002F
100
AcDbEntity
  8
0
100
AcDbPoint
 10
613222.387386464
 20
6651497.76484622
  0
POINT
  5
20030
100
AcDbEntity
  8
0
100
AcDbPoint
 10
613221.722651308
 20
6651492.44696497
  0
POINT
  5
20031
100
AcDbEntity
  8
0
100
AcDbPoint
 10
613208.095580617
 20
6651487.79381889
  0
POINT
  5
20032
100
AcDbEntity
  8
0
100
AcDbPoint
 10
613195.797980237
 20
6651481.47883491
  0
POINT
  5
20033
100
AcDbEntity
  8
0
100
AcDbPoint
 10
613190.147731414
 20
6651476.82568882
  0
POINT
  5
20034
100
AcDbEntity
  8
0
100
AcDbPoint
 10
613181.838541968
 20
6651468.84886695
  0
POINT
  5
20035
100
AcDbEntity
  8
0
100
AcDbPoint
 10
613181.838541968
 20
6651462.20151539
  0
POINT
  5
20036
100
AcDbEntity
  8
0
100
AcDbPoint
 10
613185.162217746
 20
6651458.21310446
  0
POINT
  5
20037
100
AcDbEntity
  8
0
100
AcDbPoint
 10
613185.162217746
 20
6651446.91260681
  0
POINT
  5
20038
100
AcDbEntity
  8
0
100
AcDbPoint
 10
613179.511968923
 20
6651434.61500643
  0
POINT
  5
20039
100
AcDbEntity
  8
0
100
AcDbPoint
 10
613163.890692764
 20
6651418.99373027
  0
POINT
  5
2003A
100
AcDbEntity
  8
0
100
AcDbPoint
 10
613156.578606052
 20
6651413.34348145
  0
POINT
  5
2003B
100
AcDbEntity
  8
0
100
AcDbPoint
 10
613145.610475983
 20
6651413.67584903
  0
POINT
  5
2003C
100
AcDbEntity
  8
0
100
AcDbPoint
 10
613131.983405292
 20
6651412.34637872
  0
POINT
  5
2003D
100
AcDbEntity
  8
0
100
AcDbPoint
 10
613126.000788891
 20
6651407.02849747
  0
POINT
  5
2003E
100
AcDbEntity
  8
0
100
AcDbPoint
 10
613124.006583424
 20
6651401.71061623
  0
POINT
  5
2003F
100
AcDbEntity
  8
0
100
AcDbPoint
 10
613127.994994358
 20
6651394.73089709
  0
POINT
  5
20040
100
AcDbEntity
  8
0
100
AcDbPoint
 10
613125.668421313
 20
6651389.41301585
  0
POINT
  5
20041
100
AcDbEntity
  8
0
100
AcDbPoint
 10
613118.356334601
 20
6651386.08934007
  0
POINT
  5
20042
100
AcDbEntity
  8
0
100
AcDbPoint
 10
613097.749544775
 20
6651389.74538342
  0
POINT
  5
20043
100
AcDbEntity
  8
0
100
AcDbPoint
 10
613084.454841661
 20
6651387.0864428
  0
POINT
  5
20044
100
AcDbEntity
  8
0
100
AcDbPoint
 10
613079.469327994
 20
6651383.76276702
  0
POINT
  5
20045
100
AcDbEntity
  8
0
100
AcDbPoint
 10
613083.12537135
 20
6651369.80332876
  0
POINT
  5
20046
100
AcDbEntity
  8
0
100
AcDbPoint
 10
613070.495403392
 20
6651358.83519869
  0
POINT
  5
20047
100
AcDbEntity
  8
0
100
AcDbPoint
 10
613044.238364743
 20
6651352.18784713
  0
POINT
  5
20048
100
AcDbEntity
  8
0
100
AcDbPoint
 10
613032.605499518
 20
6651343.21392252
  0
POINT
  5
20049
100
AcDbEntity
  8
0
100
AcDbPoint
 10
613020.307899138
 20
6651338.22840886
  0
POINT
  5
2004A
100
AcDbEntity
  8
0
100
AcDbPoint
 10
613001.030579624
 20
6651345.54049557
  0
POINT
  5
2004B
100
AcDbEntity
  8
0
100
AcDbPoint
 10
612981.088524954
 20
6651347.20233346
  0
POINT
  5
2004C
100
AcDbEntity
  8
0
100
AcDbPoint
 10
612962.475940595
 20
6651333.57526277
  0
POINT
  5
2004D
100
AcDbEntity
  8
0
100
AcDbPoint
 10
612938.213107413
 20
6651338.89314401
  0
POINT
  5
2004E
100
AcDbEntity
  8
0
100
AcDbPoint
 10
612932.562858589
 20
6651332.57816004
  0
POINT
  5
2004F
100
AcDbEntity
  8
0
100
AcDbPoint
 10
612944.860458969
 20
6651317.95398661
  0
POINT
  5
20050
100
AcDbEntity
  8
0
100
AcDbPoint
 10
612951.840178104
 20
6651310.30953232
  0
POINT
  5
20051
100
AcDbEntity
  8
0
100
AcDbPoint
 10
612961.478837861
 20
6651311.63900263
  0
POINT
  5
20052
100
AcDbEntity
  8
0
100
AcDbPoint
 10
612966.464351529
 20
6651309.97716474
  0
POINT
  5
20053
100
AcDbEntity
  8
0
100
AcDbPoint
 10
612969.123292152
 20
6651300.33850498
  0
POINT
  5
20054
100
AcDbEntity
  8
0
100
AcDbPoint
 10
612971.782232774
 20
6651295.02062374
  0
POINT
  5
20055
100
AcDbEntity
  8
0
100
AcDbPoint
 10
612987.071141355
 20
6651288.70563976
  0
POINT
  5
20056
100
AcDbEntity
  8
0
100
AcDbPoint
 10
613005.351358136
 20
6651288.70563976
  0
POINT
  5
20057
100
AcDbEntity
  8
0
100
AcDbPoint
 10
613022.302104605
 20
6651289.03800734
  0
POINT
  5
20058
100
AcDbEntity
  8
0
100
AcDbPoint
 10
613038.920483498
 20
6651289.70274249
  0
POINT
  5
20059
100
AcDbEntity
  8
0
100
AcDbPoint
 10
613074.151446748
 20
6651285.71433156
  0
POINT
  5
2005A
100
AcDbEntity
  8
0
100
AcDbPoint
 10
613092.431663529
 20
6651293.69115343
  0
POINT
  5
2005B
100
AcDbEntity
  8
0
100
AcDbPoint
 10
613117.359231867
 20
6651288.04090461
  0
POINT
  5
2005C
100
AcDbEntity
  8
0
100
AcDbPoint
 10
613151.593092384
 20
6651293.02641827
  0
POINT
  5
2005D
100
AcDbEntity
  8
0
100
AcDbPoint
 10
613159.237546674
 20
6651294.02352101
  0
POINT
  5
2005E
100
AcDbEntity
  8
0
100
AcDbPoint
 10
613174.858822833
 20
6651289.70274249
  0
POINT
  5
2005F
100
AcDbEntity
  8
0
100
AcDbPoint
 10
613195.465612659
 20
6651301.00324014
  0
POINT
  5
20060
100
AcDbEntity
  8
0
100
AcDbPoint
 10
613210.089786084
 20
6651301.00324014
  0
POINT
  5
20061
100
AcDbEntity
  8
0
100
AcDbPoint
 10
613237.011559888
 20
6651315.62741357
  0
POINT
  5
20062
100
AcDbEntity
  8
0
100
AcDbPoint
 10
613256.621246981
 20
6651313.96557568
  0
POINT
  5
20063
100
AcDbEntity
  8
0
100
AcDbPoint
 10
613267.589377049
 20
6651315.29504599
  0
POINT
  5
20064
100
AcDbEntity
  8
0
100
AcDbPoint
 10
613278.889874696
 20
6651309.64479717
  0
POINT
  5
20065
100
AcDbEntity
  8
0
100
AcDbPoint
 10
613284.872491097
 20
6651305.65638623
  0
POINT
  5
20066
100
AcDbEntity
  8
0
100
AcDbPoint
 10
613282.87828563
 20
6651280.72881789
  0
POINT
  5
20067
100
AcDbEntity
  8
0
100
AcDbPoint
 10
613288.860902031
 20
6651279.39934758
  0
POINT
  5
20068
100
AcDbEntity
  8
0
100
AcDbPoint
 10
613290.190372342
 20
6651275.74330423
  0
POINT
  5
20069
100
AcDbEntity
  8
0
100
AcDbPoint
 10
613282.87828563
 20
6651267.1017472
  0
POINT
  5
2006A
100
AcDbEntity
  8
0
100
AcDbPoint
 10
613255.956511825
 20
6651261.1191308
  0
POINT
  5
2006B
100
AcDbEntity
  8
0
100
AcDbPoint
 10
613242.661808712
 20
6651247.15969253
  0
POINT
  5
2006C
100
AcDbEntity
  8
0
100
AcDbPoint
 10
613223.716856775
 20
6651251.48047104
  0
POINT
  5
2006D
100
AcDbEntity
  8
0
100
AcDbPoint
 10
613203.442434527
 20
6651241.50944371
  0
POINT
  5
2006E
100
AcDbEntity
  8
0
100
AcDbPoint
 10
613175.855925567
 20
6651234.86209215
  0
POINT
  5
2006F
100
AcDbEntity
  8
0
100
AcDbPoint
 10
613146.939946295
 20
6651235.19445973
  0
POINT
  5
20070
100
AcDbEntity
  8
0
100
AcDbPoint
 10
613121.680010379
 20
6651229.87657848
  0
POINT
  5
20071
100
AcDbEntity
  8
0
100
AcDbPoint
 10
613115.032658822
 20
6651223.22922693
  0
POINT
  5
20072
100
AcDbEntity
  8
0
100
AcDbPoint
 10
613119.021069756
 20
6651213.25819959
  0
POINT
  5
20073
100
AcDbEntity
  8
0
100
AcDbPoint
 10
613139.295492004
 20
6651205.94611288
  0
POINT
  5
20074
100
AcDbEntity
  8
0
100
AcDbPoint
 10
613150.595989651
 20
6651196.30745312
  0
POINT
  5
20075
100
AcDbEntity
  8
0
100
AcDbPoint
 10
613153.919665429
 20
6651189.99246915
  0
POINT
  5
20076
100
AcDbEntity
  8
0
100
AcDbPoint
 10
613153.587297851
 20
6651182.68038243
  0
POINT
  5
20077
100
AcDbEntity
  8
0
100
AcDbPoint
 10
613129.656832247
 20
6651186.66879336
  0
POINT
  5
20078
100
AcDbEntity
  8
0
100
AcDbPoint
 10
613099.743750241
 20
6651191.98667461
  0
POINT
  5
20079
100
AcDbEntity
  8
0
100
AcDbPoint
 10
613097.749544775
 20
6651187.99826368
  0
POINT
  5
2007A
100
AcDbEntity
  8
0
100
AcDbPoint
 10
613097.417177197
 20
6651182.01564728
  0
POINT
  5
2007B
100
AcDbEntity
  8
0
100
AcDbPoint
 10
613097.417177197
 20
6651176.69776603
  0
POINT
  5
2007C
100
AcDbEntity
  8
0
100
AcDbPoint
 10
613098.41427993
 20
6651176.03303088
  0
POINT
  5
2007D
100
AcDbEntity
  8
0
100
AcDbPoint
 10
613124.338951002
 20
6651170.38278205
  0
POINT
  5
2007E
100
AcDbEntity
  8
0
100
AcDbPoint
 10
613144.281005672
 20
6651166.06200354
  0
POINT
  5
2007F
100
AcDbEntity
  8
0
100
AcDbPoint
 10
613152.922562696
 20
6651166.06200354
  0
POINT
  5
20080
100
AcDbEntity
  8
0
100
AcDbPoint
 10
613162.561222453
 20
6651165.0649008
  0
POINT
  5
20081
100
AcDbEntity
  8
0
100
AcDbPoint
 10
613168.211471276
 20
6651164.40016565
  0
POINT
  5
20082
100
AcDbEntity
  8
0
100
AcDbPoint
 10
613181.173806812
 20
6651162.40596018
  0
POINT
  5
20083
100
AcDbEntity
  8
0
100
AcDbPoint
 10
613192.806672036
 20
6651160.74412229
  0
POINT
  5
20084
100
AcDbEntity
  8
0
100
AcDbPoint
 10
613201.44822906
 20
6651150.44072738
  0
POINT
  5
20085
100
AcDbEntity
  8
0
100
AcDbPoint
 10
613200.783493904
 20
6651146.78468402
  0
POINT
  5
20086
100
AcDbEntity
  8
0
100
AcDbPoint
 10
613197.792185704
 20
6651143.12864067
  0
POINT
  5
20087
100
AcDbEntity
  8
0
100
AcDbPoint
 10
613192.474304458
 20
6651143.12864067
  0
POINT
  5
20088
100
AcDbEntity
  8
0
100
AcDbPoint
 10
613178.182498611
 20
6651143.46100825
  0
POINT
  5
20089
100
AcDbEntity
  8
0
100
AcDbPoint
 10
613172.532249788
 20
6651139.80496489
  0
POINT
  5
2008A
100
AcDbEntity
  8
0
100
AcDbPoint
 10
613169.540941587
 20
6651127.50736451
  0
POINT
  5
2008B
100
AcDbEntity
  8
0
100
AcDbPoint
 10
613146.607578717
 20
6651130.16630514
  0
POINT
  5
2008C
100
AcDbEntity
  8
0
100
AcDbPoint
 10
613139.627859582
 20
6651124.84842389
  0
POINT
  5
2008D
100
AcDbEntity
  8
0
100
AcDbPoint
 10
613140.292594738
 20
6651108.56241257
  0
POINT
  5
2008E
100
AcDbEntity
  8
0
100
AcDbPoint
 10
613166.882000964
 20
6651068.34593566
  0
POINT
  5
2008F
100
AcDbEntity
  8
0
100
AcDbPoint
 10
613184.165115012
 20
6651055.7159677
  0
POINT
  5
20090
100
AcDbEntity
  8
0
100
AcDbPoint
 10
613200.783493904
 20
6651054.71886496
  0
POINT
  5
20091
100
AcDbEntity
  8
0
100
AcDbPoint
 10
613208.760315772
 20
6651057.04543801
  0
POINT
  5
20092
100
AcDbEntity
  8
0
100
AcDbPoint
 10
613209.09268335
 20
6651048.73624857
  0
POINT
  5
20093
100
AcDbEntity
  8
0
100
AcDbPoint
 10
613206.433742727
 20
6651045.0802052
  0
POINT
  5
20094
100
AcDbEntity
  8
0
100
AcDbPoint
 10
613197.459818126
 20
6651032.45023725
  0
POINT
  5
20095
100
AcDbEntity
  8
0
100
AcDbPoint
 10
613192.14193688
 20
6651030.78839936
  0
POINT
  5
20096
100
AcDbEntity
  8
0
100
AcDbPoint
 10
613181.173806812
 20
6651025.8028857
  0
POINT
  5
20097
100
AcDbEntity
  8
0
100
AcDbPoint
 10
613170.538044321
 20
6651021.1497396
  0
POINT
  5
20098
100
AcDbEntity
  8
0
100
AcDbPoint
 10
613168.876206432
 20
6651016.82896109
  0
POINT
  5
20099
100
AcDbEntity
  8
0
100
AcDbPoint
 10
613166.549633387
 20
6650987.24824666
  0
POINT
  5
2009A
100
AcDbEntity
  8
0
100
AcDbPoint
 10
613172.19988221
 20
6650958.33226739
  0
POINT
  5
2009B
100
AcDbEntity
  8
0
100
AcDbPoint
 10
613160.234649408
 20
6650941.04915335
  0
POINT
  5
2009C
100
AcDbEntity
  8
0
100
AcDbPoint
 10
613150.595989651
 20
6650934.73416937
  0
POINT
  5
2009D
100
AcDbEntity
  8
0
100
AcDbPoint
 10
613141.954432627
 20
6650939.38731546
  0
POINT
  5
2009E
100
AcDbEntity
  8
0
100
AcDbPoint
 10
613132.31577287
 20
6650961.32357559
  0
POINT
  5
2009F
100
AcDbEntity
  8
0
100
AcDbPoint
 10
613131.651037714
 20
6650968.30329473
  0
POINT
  5
200A0
100
AcDbEntity
  8
0
100
AcDbPoint
 10
613128.659729513
 20
6650984.25693847
  0
POINT
  5
200A1
100
AcDbEntity
  8
0
100
AcDbPoint
 10
613122.677113112
 20
6650979.93615995
  0
POINT
  5
200A2
100
AcDbEntity
  8
0
100
AcDbPoint
 10
613119.685804912
 20
6650980.60089511
  0
POINT
  5
200A3
100
AcDbEntity
  8
0
100
AcDbPoint
 10
613112.706085777
 20
6650984.58930604
  0
POINT
  5
200A4
100
AcDbEntity
  8
0
100
AcDbPoint
 10
613107.388204532
 20
6650985.58640878
  0
POINT
  5
200A5
100
AcDbEntity
  8
0
100
AcDbPoint
 10
613102.735058442
 20
6650980.26852753
  0
POINT
  5
200A6
100
AcDbEntity
  8
0
100
AcDbPoint
 10
613100.076117819
 20
6650976.2801166
  0
POINT
  5
200A7
100
AcDbEntity
  8
0
100
AcDbPoint
 10
613098.081912352
 20
6650973.62117597
  0
POINT
  5
200A8
100
AcDbEntity
  8
0
100
AcDbPoint
 10
613094.093501418
 20
6650969.30039746
  0
POINT
  5
200A9
100
AcDbEntity
  8
0
100
AcDbPoint
 10
613084.454841661
 20
6650967.97092715
  0
POINT
  5
200AA
100
AcDbEntity
  8
0
100
AcDbPoint
 10
613075.813284637
 20
6650966.64145684
  0
POINT
  5
200AB
100
AcDbEntity
  8
0
100
AcDbPoint
 10
613071.824873703
 20
6650972.95644082
  0
POINT
  5
200AC
100
AcDbEntity
  8
0
100
AcDbPoint
 10
613074.816181904
 20
6650992.23376033
  0
POINT
  5
200AD
100
AcDbEntity
  8
0
100
AcDbPoint
 10
613076.478019793
 20
6651016.49659351
  0
POINT
  5
200AE
100
AcDbEntity
  8
0
100
AcDbPoint
 10
613072.821976437
 20
6651027.79709116
  0
POINT
  5
200AF
100
AcDbEntity
  8
0
100
AcDbPoint
 10
613070.495403392
 20
6651027.79709116
  0
POINT
  5
200B0
100
AcDbEntity
  8
0
100
AcDbPoint
 10
613065.177522146
 20
6651022.81157749
  0
POINT
  5
200B1
100
AcDbEntity
  8
0
100
AcDbPoint
 10
613059.194905745
 20
6651020.15263687
  0
POINT
  5
200B2
100
AcDbEntity
  8
0
100
AcDbPoint
 10
613051.882819033
 20
6651020.81737203
  0
POINT
  5
200B3
100
AcDbEntity
  8
0
100
AcDbPoint
 10
613048.226775677
 20
6651013.83765289
  0
POINT
  5
200B4
100
AcDbEntity
  8
0
100
AcDbPoint
 10
613046.897305365
 20
6651008.85213922
  0
POINT
  5
200B5
100
AcDbEntity
  8
0
100
AcDbPoint
 10
613047.562040521
 20
6651003.2018904
  0
POINT
  5
200B6
100
AcDbEntity
  8
0
100
AcDbPoint
 10
613050.553348722
 20
6650986.91587908
  0
POINT
  5
200B7
100
AcDbEntity
  8
0
100
AcDbPoint
 10
613050.553348722
 20
6650979.60379237
  0
POINT
  5
200B8
100
AcDbEntity
  8
0
100
AcDbPoint
 10
613048.559143255
 20
6650975.61538144
  0
POINT
  5
200B9
100
AcDbEntity
  8
0
100
AcDbPoint
 10
613043.241262009
 20
6650966.97382442
  0
POINT
  5
200BA
100
AcDbEntity
  8
0
100
AcDbPoint
 10
613035.264440141
 20
6650956.6704295
  0
POINT
  5
200BB
100
AcDbEntity
  8
0
100
AcDbPoint
 10
613023.963942495
 20
6650941.7138885
  0
POINT
  5
200BC
100
AcDbEntity
  8
0
100
AcDbPoint
 10
613015.322385471
 20
6650930.41339086
  0
POINT
  5
200BD
100
AcDbEntity
  8
0
100
AcDbPoint
 10
612997.706903845
 20
6650927.75445023
  0
POINT
  5
200BE
100
AcDbEntity
  8
0
100
AcDbPoint
 10
612984.079833154
 20
6650925.42787719
  0
POINT
  5
200BF
100
AcDbEntity
  8
0
100
AcDbPoint
 10
612984.412200732
 20
6650930.08102328
  0
POINT
  5
200C0
100
AcDbEntity
  8
0
100
AcDbPoint
 10
612990.062449555
 20
6650935.06653695
  0
POINT
  5
200C1
100
AcDbEntity
  8
0
100
AcDbPoint
 10
612996.709801112
 20
6650942.71099123
  0
POINT
  5
200C2
100
AcDbEntity
  8
0
100
AcDbPoint
 10
613000.365844468
 20
6650952.01728341
  0
POINT
  5
200C3
100
AcDbEntity
  8
0
100
AcDbPoint
 10
613003.024785091
 20
6650963.98251622
  0
POINT
  5
200C4
100
AcDbEntity
  8
0
100
AcDbPoint
 10
612989.065346822
 20
6650957.00279708
  0
POINT
  5
200C5
100
AcDbEntity
  8
0
100
AcDbPoint
 10
612985.741671043
 20
6650959.32937013
  0
POINT
  5
200C6
100
AcDbEntity
  8
0
100
AcDbPoint
 10
612986.364860252
 20
6650972.33325161
  0
POINT
  5
200C7
100
AcDbEntity
  8
0
100
AcDbPoint
 10
612981.836352004
 20
6650984.34003035
  0
POINT
  5
200C8
100
AcDbEntity
  8
0
100
AcDbPoint
 10
612980.340697903
 20
6650986.16805204
  0
POINT
  5
200C9
100
AcDbEntity
  8
0
100
AcDbPoint
 10
612973.236340927
 20
6650993.97869011
  0
POINT
  5
200CA
100
AcDbEntity
  8
0
100
AcDbPoint
 10
612978.1387627
 20
6651022.31302612
  0
POINT
  5
200CB
100
AcDbEntity
  8
0
100
AcDbPoint
 10
612998.288547107
 20
6651049.31789182
  0
POINT
  5
200CC
100
AcDbEntity
  8
0
100
AcDbPoint
 10
613020.8895424
 20
6651072.83289795
  0
POINT
  5
200CD
100
AcDbEntity
  8
0
100
AcDbPoint
 10
613031.940764363
 20
6651077.40295215
  0
POINT
  5
200CE
100
AcDbEntity
  8
0
100
AcDbPoint
 10
613028.035445323
 20
6651098.42520145
  0
POINT
  5
200CF
100
AcDbEntity
  8
0
100
AcDbPoint
 10
613011.915617798
 20
6651098.00974197
  0
POINT
  5
200D0
100
AcDbEntity
  8
0
100
AcDbPoint
 10
613006.847012236
 20
6651107.48221794
  0
POINT
  5
200D1
100
AcDbEntity
  8
0
100
AcDbPoint
 10
613011.832525904
 20
6651127.50736451
  0
POINT
  5
200D2
100
AcDbEntity
  8
0
100
AcDbPoint
 10
613009.838320437
 20
6651128.75374292
  0
POINT
  5
200D3
100
AcDbEntity
  8
0
100
AcDbPoint
 10
613006.763920342
 20
6651130.49867271
  0
POINT
  5
200D4
100
AcDbEntity
  8
0
100
AcDbPoint
 10
613005.102082452
 20
6651131.24649976
  0
POINT
  5
200D5
100
AcDbEntity
  8
0
100
AcDbPoint
 10
613002.276958041
 20
6651132.1605106
  0
POINT
  5
200D6
100
AcDbEntity
  8
0
100
AcDbPoint
 10
612998.371639001
 20
6651133.32379712
  0
POINT
  5
200D7
100
AcDbEntity
  8
0
100
AcDbPoint
 10
612994.217044278
 20
6651131.08031597
  0
POINT
  5
200D8
100
AcDbEntity
  8
0
100
AcDbPoint
 10
612979.260503276
 20
6651109.80879099
  0
POINT
  5
200D9
100
AcDbEntity
  8
0
100
AcDbPoint
 10
612974.191897714
 20
6651089.61746063
  0
POINT
  5
200DA
100
AcDbEntity
  8
0
100
AcDbPoint
 10
612965.841162321
 20
6651067.43192481
  0
POINT
  5
200DB
100
AcDbEntity
  8
0
100
AcDbPoint
 10
612965.633432585
 20
6651046.53431335
  0
POINT
  5
200DC
100
AcDbEntity
  8
0
100
AcDbPoint
 10
612964.677875798
 20
6651043.29372947
  0
POINT
  5
200DD
100
AcDbEntity
  8
0
100
AcDbPoint
 10
612959.692362131
 20
6651026.05216137
  0
POINT
  5
200DE
100
AcDbEntity
  8
0
100
AcDbPoint
 10
612956.327140405
 20
6651013.46373936
  0
POINT
  5
200DF
100
AcDbEntity
  8
0
100
AcDbPoint
 10
612950.178340215
 20
6651001.41541467
  0
POINT
  5
200E0
100
AcDbEntity
  8
0
100
AcDbPoint
 10
612942.533885925
 20
6650998.92265784
  0
POINT
  5
200E1
100
AcDbEntity
  8
0
100
AcDbPoint
 10
612938.046923624
 20
6651001.08304709
  0
POINT
  5
200E2
100
AcDbEntity
  8
0
100
AcDbPoint
 10
612935.055615423
 20
6651009.807696
  0
POINT
  5
200E3
100
AcDbEntity
  8
0
100
AcDbPoint
 10
612937.382188468
 20
6651025.13815053
  0
POINT
  5
200E4
100
AcDbEntity
  8
0
100
AcDbPoint
 10
612937.21600468
 20
6651036.1062806
  0
POINT
  5
200E5
100
AcDbEntity
  8
0
100
AcDbPoint
 10
612939.044026358
 20
6651043.87537273
  0
POINT
  5
200E6
100
AcDbEntity
  8
0
100
AcDbPoint
 10
612935.304891107
 20
6651046.86668094
  0
POINT
  5
200E7
100
AcDbEntity
  8
0
100
AcDbPoint
 10
612927.577344922
 20
6651054.8435028
  0
POINT
  5
200E8
100
AcDbEntity
  8
0
100
AcDbPoint
 10
612927.494253028
 20
6651058.99809752
  0
POINT
  5
200E9
100
AcDbEntity
  8
0
100
AcDbPoint
 10
612932.230491012
 20
6651067.30728698
  0
POINT
  5
200EA
100
AcDbEntity
  8
0
100
AcDbPoint
 10
612921.428544732
 20
6651081.9314604
  0
POINT
  5
200EB
100
AcDbEntity
  8
0
100
AcDbPoint
 10
612925.084588088
 20
6651086.4184227
  0
POINT
  5
200EC
100
AcDbEntity
  8
0
100
AcDbPoint
 10
612926.330966505
 20
6651088.08026059
  0
POINT
  5
200ED
100
AcDbEntity
  8
0
100
AcDbPoint
 10
612929.987009862
 20
6651096.55563382
  0
POINT
  5
200EE
100
AcDbEntity
  8
0
100
AcDbPoint
 10
612930.402469334
 20
6651099.13148255
  0
POINT
  5
200EF
100
AcDbEntity
  8
0
100
AcDbPoint
 10
612931.233388278
 20
6651113.00782893
  0
POINT
  5
200F0
100
AcDbEntity
  8
0
100
AcDbPoint
 10
612928.740631444
 20
6651115.50058576
  0
POINT
  5
200F1
100
AcDbEntity
  8
0
100
AcDbPoint
 10
612923.921301566
 20
6651118.32571017
  0
POINT
  5
200F2
100
AcDbEntity
  8
0
100
AcDbPoint
 10
612920.763809576
 20
6651114.8358506
  0
POINT
  5
200F3
100
AcDbEntity
  8
0
100
AcDbPoint
 10
612913.451722864
 20
6651114.66966681
  0
POINT
  5
200F4
100
AcDbEntity
  8
0
100
AcDbPoint
 10
612909.130944352
 20
6651117.99334259
  0
POINT
  5
200F5
100
AcDbEntity
  8
0
100
AcDbPoint
 10
612906.804371307
 20
6651123.31122384
  0
POINT
  5
200F6
100
AcDbEntity
  8
0
100
AcDbPoint
 10
612904.477798262
 20
6651128.13055372
  0
POINT
  5
200F7
100
AcDbEntity
  8
0
100
AcDbPoint
 10
612902.649776584
 20
6651129.12765645
  0
POINT
  5
200F8
100
AcDbEntity
  8
0
100
AcDbPoint
 10
612901.154122484
 20
6651130.12475919
  0
POINT
  5
200F9
100
AcDbEntity
  8
0
100
AcDbPoint
 10
612896.168608816
 20
6651131.2880457
  0
POINT
  5
200FA
100
AcDbEntity
  8
0
100
AcDbPoint
 10
612890.684543782
 20
6651135.27645664
  0
POINT
  5
200FB
100
AcDbEntity
  8
0
100
AcDbPoint
 10
612897.664262916
 20
6651147.40787323
  0
POINT
  5
200FC
100
AcDbEntity
  8
0
100
AcDbPoint
 10
612903.148327951
 20
6651152.06101932
  0
POINT
  5
200FD
100
AcDbEntity
  8
0
100
AcDbPoint
 10
612918.271052743
 20
6651165.52190622
  0
POINT
  5
200FE
100
AcDbEntity
  8
0
100
AcDbPoint
 10
612929.072999022
 20
6651171.00597126
  0
POINT
  5
200FF
100
AcDbEntity
  8
0
100
AcDbPoint
 10
612933.726145112
 20
6651175.65911735
  0
POINT
  5
20100
100
AcDbEntity
  8
0
100
AcDbPoint
 10
612934.723247846
 20
6651176.82240387
  0
POINT
  5
20101
100
AcDbEntity
  8
0
100
AcDbPoint
 10
612934.224696479
 20
6651179.81371207
  0
POINT
  5
20102
100
AcDbEntity
  8
0
100
AcDbPoint
 10
612933.726145112
 20
6651181.80791754
  0
POINT
  5
20103
100
AcDbEntity
  8
0
100
AcDbPoint
 10
612932.064307223
 20
6651185.46396089
  0
POINT
  5
20104
100
AcDbEntity
  8
0
100
AcDbPoint
 10
612930.236285545
 20
6651190.28329077
  0
POINT
  5
20105
100
AcDbEntity
  8
0
100
AcDbPoint
 10
612922.425647465
 20
6651197.76156127
  0
POINT
  5
20106
100
AcDbEntity
  8
0
100
AcDbPoint
 10
612917.938685165
 20
6651195.10262065
  0
POINT
  5
20107
100
AcDbEntity
  8
0
100
AcDbPoint
 10
612914.116458019
 20
6651191.94512866
  0
POINT
  5
20108
100
AcDbEntity
  8
0
100
AcDbPoint
 10
612909.629495719
 20
6651188.12290152
  0
POINT
  5
20109
100
AcDbEntity
  8
0
100
AcDbPoint
 10
612905.641084785
 20
6651183.96830679
  0
POINT
  5
2010A
100
AcDbEntity
  8
0
100
AcDbPoint
 10
612896.999527761
 20
6651183.80212301
  0
POINT
  5
2010B
100
AcDbEntity
  8
0
100
AcDbPoint
 10
612892.844933038
 20
6651186.62724742
  0
POINT
  5
2010C
100
AcDbEntity
  8
0
100
AcDbPoint
 10
612892.180197882
 20
6651189.28618804
  0
POINT
  5
2010D
100
AcDbEntity
  8
0
100
AcDbPoint
 10
612892.678749249
 20
6651198.42629644
  0
POINT
  5
2010E
100
AcDbEntity
  8
0
100
AcDbPoint
 10
612894.174403349
 20
6651211.22244818
  0
POINT
  5
2010F
100
AcDbEntity
  8
0
100
AcDbPoint
 10
612898.495181861
 20
6651220.69492415
  0
POINT
  5
20110
100
AcDbEntity
  8
0
100
AcDbPoint
 10
612907.801474041
 20
6651242.2988167
  0
POINT
  5
20111
100
AcDbEntity
  8
0
100
AcDbPoint
 10
612907.801474041
 20
6651253.59931435
  0
POINT
  5
20112
100
AcDbEntity
  8
0
100
AcDbPoint
 10
612903.148327951
 20
6651257.58772529
  0
POINT
  5
20113
100
AcDbEntity
  8
0
100
AcDbPoint
 10
612898.162814284
 20
6651258.25246044
  0
POINT
  5
20114
100
AcDbEntity
  8
0
100
AcDbPoint
 10
612893.509668194
 20
6651260.24666591
  0
POINT
  5
20115
100
AcDbEntity
  8
0
100
AcDbPoint
 10
612887.527051793
 20
6651263.57034169
  0
POINT
  5
20116
100
AcDbEntity
  8
0
100
AcDbPoint
 10
612880.547332658
 20
6651264.56744442
  0
POINT
  5
20117
100
AcDbEntity
  8
0
100
AcDbPoint
 10
612873.567613524
 20
6651265.56454715
  0
POINT
  5
20118
100
AcDbEntity
  8
0
100
AcDbPoint
 10
612867.9173647
 20
6651270.8824284
  0
POINT
  5
20119
100
AcDbEntity
  8
0
100
AcDbPoint
 10
612858.611072521
 20
6651285.17423425
  0
POINT
  5
2011A
100
AcDbEntity
  8
0
100
AcDbPoint
 10
612852.960823698
 20
6651293.15105611
  0
POINT
  5
2011B
100
AcDbEntity
  8
0
100
AcDbPoint
 10
612848.972412764
 20
6651293.15105611
  0
POINT
  5
2011C
100
AcDbEntity
  8
0
100
AcDbPoint
 10
612843.322163941
 20
6651289.82738033
  0
POINT
  5
2011D
100
AcDbEntity
  8
0
100
AcDbPoint
 10
612841.992693629
 20
6651283.18002878
  0
POINT
  5
2011E
100
AcDbEntity
  8
0
100
AcDbPoint
 10
612839.001385428
 20
6651276.20030965
  0
POINT
  5
2011F
100
AcDbEntity
  8
0
100
AcDbPoint
 10
612834.680606916
 20
6651273.54136902
  0
POINT
  5
20120
100
AcDbEntity
  8
0
100
AcDbPoint
 10
612828.03325536
 20
6651272.54426628
  0
POINT
  5
20121
100
AcDbEntity
  8
0
100
AcDbPoint
 10
612824.377212004
 20
6651270.55006082
  0
POINT
  5
20122
100
AcDbEntity
  8
0
100
AcDbPoint
 10
612823.38010927
 20
6651267.89112019
  0
POINT
  5
20123
100
AcDbEntity
  8
0
100
AcDbPoint
 10
612822.383006537
 20
6651256.25825497
  0
POINT
  5
20124
100
AcDbEntity
  8
0
100
AcDbPoint
 10
612822.050638959
 20
6651250.60800615
  0
POINT
  5
20125
100
AcDbEntity
  8
0
100
AcDbPoint
 10
612819.391698336
 20
6651247.28433037
  0
POINT
  5
20126
100
AcDbEntity
  8
0
100
AcDbPoint
 10
612816.732757714
 20
6651245.2901249
  0
POINT
  5
20127
100
AcDbEntity
  8
0
100
AcDbPoint
 10
612812.411979201
 20
6651245.62249248
  0
POINT
  5
20128
100
AcDbEntity
  8
0
100
AcDbPoint
 10
612808.755935845
 20
6651246.9519628
  0
POINT
  5
20129
100
AcDbEntity
  8
0
100
AcDbPoint
 10
612801.776216711
 20
6651252.60221162
  0
POINT
  5
2012A
100
AcDbEntity
  8
0
100
AcDbPoint
 10
612795.79360031
 20
6651258.91719559
  0
POINT
  5
2012B
100
AcDbEntity
  8
0
100
AcDbPoint
 10
612791.805189376
 20
6651266.56164988
  0
POINT
  5
2012C
100
AcDbEntity
  8
0
100
AcDbPoint
 10
612788.813881175
 20
6651276.8650448
  0
POINT
  5
2012D
100
AcDbEntity
  8
0
100
AcDbPoint
 10
612790.475719064
 20
6651298.80130493
  0
POINT
  5
2012E
100
AcDbEntity
  8
0
100
AcDbPoint
 10
612791.805189376
 20
6651303.45445103
  0
POINT
  5
2012F
100
AcDbEntity
  8
0
100
AcDbPoint
 10
612792.619196676
 20
6651310.27262974
  0
POINT
  5
20130
100
AcDbEntity
  8
0
100
AcDbPoint
 10
612794.578201117
 20
6651323.53823389
  0
ENDSEC
  0
SECTION
  2
OBJECTS
  0
DICTIONARY
  5
C
330
0
100
AcDbDictionary
281
     1
  3
ACAD_GROUP
350
D
  3
ACAD_LAYOUT
350
1A
  3
ACAD_MLEADERSTYLE
350
43
  3
ACAD_PLOTSETTINGS
350
19
  3
ACAD_PLOTSTYLENAME
350
E
  3
ACAD_TABLESTYLE
350
42
  0
DICTIONARY
  5
D
102
{ACAD_REACTORS
330
C
102
}
330
C
100
AcDbDictionary
281
     1
  0
DICTIONARY
  5
1A
102
{ACAD_REACTORS
330
C
102
}
330
C
100
AcDbDictionary
281
     1
  3
Layout1
350
1E
  3
Model
350
22
  0
DICTIONARY
  5
43
102
{ACAD_REACTORS
330
C
102
}
330
C
100
AcDbDictionary
281
     1
  0
DICTIONARY
  5
19
102
{ACAD_REACTORS
330
C
102
}
330
C
100
AcDbDictionary
281
     1
  0
ACDBDICTIONARYWDFLT
  5
E
102
{ACAD_REACTORS
330
C
102
}
330
C
100
AcDbDictionary
281
     1
  3
Normal
350
F
100
AcDbDictionaryWithDefault
340
F
  0
DICTIONARY
  5
42
102
{ACAD_REACTORS
330
C
102
}
330
C
100
AcDbDictionary
281
     1
  0
LAYOUT
  5
1E
102
{ACAD_REACTORS
330
1A
102
}
330
1A
100
AcDbPlotSettings
  1

  2
none_device
  4

  6

 40
0.0
 41
0.0
 42
0.0
 43
0.0
 44
0.0
 45
0.0
 46
0.0
 47
0.0
 48
0.0
 49
0.0
140
0.0
141
0.0
142
1.0
143
1.0
 70
   688
 72
     0
 73
     0
 74
     5
  7

 75
    16
 76
     0
 77
     2
 78
   300
147
1.0
148
0.0
149
0.0
100
AcDbLayout
  1
Layout1
 70
     1
 71
     1
 10
0.0
 20
0.0
 11
12.0
 21
9.0
 12
0.0
 22
0.0
 32
0.0
 14
1.000000000000000E+20
 24
1.000000000000000E+20
 34
1.000000000000000E+20
 15
-1.000000000000000E+20
 25
-1.000000000000000E+20
 35
-1.000000000000000E+20
146
0.0
 13
0.0
 23
0.0
 33
0.0
 16
1.0
 26
0.0
 36
0.0
 17
0.0
 27
1.0
 37
0.0
 76
     0
330
1B
  0
LAYOUT
  5
22
102
{ACAD_REACTORS
330
1A
102
}
330
1A
100
AcDbPlotSettings
  1

  2
none_device
  4

  6

 40
0.0
 41
0.0
 42
0.0
 43
0.0
 44
0.0
 45
0.0
 46
0.0
 47
0.0
 48
0.0
 49
0.0
140
0.0
141
0.0
142
1.0
143
1.0
 70
  1712
 72
     0
 73
     0
 74
     0
  7

 75
     0
 76
     0
 77
     2
 78
   300
147
1.0
148
0.0
149
0.0
100
AcDbLayout
  1
Model
 70
     1
 71
     0
 10
0.0
 20
0.0
 11
12.0
 21
9.0
 12
0.0
 22
0.0
 32
0.0
 14
30.0
 24
49.75
 34
0.0
 15
130.5
 25
163.1318914119703
 35
0.0
146
0.0
 13
0.0
 23
0.0
 33
0.0
 16
1.0
 26
0.0
 36
0.0
 17
0.0
 27
1.0
 37
0.0
 76
     0
330
1F
331
29
  0
ENDSEC
  0
EOF
